<?xml version="1.0" encoding="utf-8"?>
<!-- Generator: Adobe Illustrator 22.0.1, SVG Export Plug-In . SVG Version: 6.00 Build 0)  -->
<svg version="1.1" xmlns="http://www.w3.org/2000/svg" xmlns:xlink="http://www.w3.org/1999/xlink" x="0px" y="0px"
	 viewBox="0 0 963.5 1731.3" style="enable-background:new 0 0 963.5 1731.3;" xml:space="preserve">
<style type="text/css">
	.st0{fill:#D3D3D3;}
	.st1{fill:#1C1C1C;}
	.st2{fill:#2B2B2B;}
	.st3{fill:#FFFFFF;}
	.st4{fill:#111111;}
	.st5{fill:#0A0A0A;}
	.st6{fill:#0C0C0C;}
	.st7{fill:#232323;}
	.st8{fill:#353535;}
	.st9{fill:#474747;}
	.st10{fill:#F4F4F4;}
	.st11{fill:#D6D6D6;}
	.st12{fill:#E8E8E8;}
	.st13{fill:#EDEDED;}
	.st14{fill:#262626;}
</style>
<g id="suit">
	<path id="suit_1_" d="M907,990.8c-0.5-27-12.5-152-12.5-152c-4.5-39-26.5-50.3-26.5-50.3s-172.5-81.8-179-89.3s-27-15.5-28-19
		s-8.5-12-8.5-12s-0.5-13.5,0-18.5s-5.5-14.5-5.5-14.5v-18c-37.1-86.8-112.1-96.6-229-31c-10.5,1.5-20,33.5-20,33.5
		s-32.5,21.5-38,36.5s-241.5,124-288,134.5s-41.5,87-47.5,95.5s3.5,39.5,0,41.5s-24,63-24,63l-3.5,755l922.1,1L907,990.8z"/>
	<path id="chest" class="st0" d="M576.7,742.3l-24-6.7c0,0-22.7-21.3-33.3-23.3c-10.7-2-129.9,43.3-129.9,43.3l66.6,983.7l361.7,8.9
		l-72-758.9l-74.4-269L576.7,742.3z"/>
	<g id="XMLID_2_">
		<g>
			<path class="st1" d="M618,813.6c-2.7,1.3,16,33.3,19,49.3s25.3,126.3,23.7,126.3c-1.7,0,40.6,365,40.6,372.4
				s-43.4,68.1-43.4,68.1c-5.9,3-11.8,3.8-17.6-0.1c0,0-63.2-51.4-64.9-61.6c-1.7-10.2-7.3-378.8-7.3-378.8s-6-105-4-107.7
				c2-2.7-10-34,4-64v-0.3c17,0,33-1,50-4l0.2,0.2C618.2,813.6,618.1,813.6,618,813.6z"/>
			<path class="st2" d="M637,758.3l-12.3,16c0,0-1.3,12-3.3,13.3c-2,1.3-2,21.3-2,21.3s1.3,3.1-1.1,4.5l-0.2-0.2c-17,3-33,4-50,4
				v0.3h-3.3l-4-8.7l-26-18c0,0-2-8-4.7-8.7s-26-20.7-28.7-20.7c-2.7,0,30-13.3,30-13.3h16c0,0,50-6.7,56-6S637,758.3,637,758.3z"/>
		</g>
		<g>
		</g>
	</g>
	<path id="right_collar" class="st3" d="M645,631.8c0,0,6,8,5.5,15.5s0,19.5,0,19.5s3.5,2.5,3.5,5.5s3.5,49,4,51s8.5,54,6,61
		s-6,5-6,0s-31-50-81.5-39C576.5,745.3,650.5,687.3,645,631.8z"/>
	<path id="left_lapel" class="st4" d="M528,1245.3L394.7,711.7l-10-46.7c0,0-4-26,11.3-46c0,0-20,13.3-41.3,38l-43.3,27.3l-19.3,80
		c0,0-2.7,3.3,0,4.7c2.7,1.3,46.7,18,46.7,18l-39.3,32c0,0-6,3.3-2,12c4,8.7,78,158.3,78,158.3l56.5,459.5l2.2,76.5L528,1245.3z"/>
	<path id="right_lapel1" class="st5" d="M794.7,989.3l-22-181.7c0,0-0.7-14.7-14.7-16.7s-52-40-52-40l-55.3-84.7l2.7,36.7l3.3,30.7
		c0,0,61.3,111.3,66,255.7l4,242l74.8,265L794.7,989.3z"/>
	<path id="right_lapel_2" class="st6" d="M722.7,774.3l20.7-20.7c0,0,5.3-4,0-6c-5.3-2-44.7-45.3-44.7-45.3s-39.7-22-43.3-22
		c-3.6,0,52,90.7,52,90.7L722.7,774.3z"/>
	<path class="st3" d="M527.5,716.3c-1-3-65.5-46-65.5-46l-36.5-33l-13-31.5c0,0-1-2.4-1.2-5.5c-3.2,0.7-6.5,1.2-9.8,1.7
		c-2.1,4.5-3.8,9.9-4.5,16.2c0,0-21.5,20.5-17.5,31.5s29.5,136,29.5,136l11.5,18c0,0,133-65,135.5-65
		C556,738.8,528.5,719.3,527.5,716.3z"/>
	<path class="st5" d="M433.9,1498.3c0,0,324.2,34.1,359.4-39.6c0,0,47.6,227.3,29.6,296s-30.8-79.8-381.8,29.7
		C90.1,1893.8,433.9,1498.3,433.9,1498.3z"/>
	<path d="M765.3,770l152,135.5c0,0,38.9,542-3.7,582c-9.7,9.1-64.9,8.7-64.9,8.7L765.3,770z"/>
	<path class="st7" d="M191.6,965.4l-19.7,321.9c8.9,3.3,21.9,7,21.7,9.6c4.7,2-12.2,16.8-22.1,27.5l23.1,377.5h13.5L181.9,1320
		c10.1-9.1,21.1-18.5,22.2-24.2c-2.8-4.9-13.9-7.4-22.7-10.6L191.6,965.4z"/>
	<path class="st7" d="M216.3,1713.4h-22.6c10.1-4.9,19.7-8.2,28-8.5C223.3,1707.8,223.3,1710.7,216.3,1713.4z"/>
</g>
<g id="head">
	<path id="tenna1" d="M568,97.4l12.9-0.7L508.2,3.2c0,0-10.3-5-9.5,2.8S568,97.4,568,97.4z"/>
	<path id="tenna2" d="M624.4,112.3l-11.6,0.2l58.9-73.9c0,0,8.9-4.3,8.6,1.5S624.4,112.3,624.4,112.3z"/>
	<path d="M924.9,516.8c0,0-87-367-88-380s-17-12-17-12s-483-58-503-59s-32,11-32,11s-169,96-184,100s-10,26-10,26s65,375,66,398
		s28,22,28,22l513-14c0,0,205-69,218-74S924.9,516.8,924.9,516.8z M317.9,84.8c13,19,28,36,40,56
		C345.9,120.8,330.9,103.8,317.9,84.8z"/>
	<path class="st8" d="M922.9,515.8c0,0-87-359-87-373s-15-15-15-15s-486-58-506-61s-19,17-19,17s77,414,81,433c4,19,18,18,18,18
		s510-4,520-4S922.9,515.8,922.9,515.8z M317.9,84.8c13,19,28,36,40,56C345.9,120.8,330.9,103.8,317.9,84.8z"/>
	<path d="M917.9,513.8c0,0-88-365-87-370s-5-8-5-8s-502-57-510-58s-7,9-7,9s79,426,81,430s8,7,8,7s505,0,514,0
		S917.9,513.8,917.9,513.8z M317.9,84.8c13,19,28,36,40,56C345.9,120.8,330.9,103.8,317.9,84.8z"/>
	<path id="board" class="st9" d="M814.9,513.2c0,0-4,1.3-4.7-4.7c-0.7-6-80-366.7-80-366.7s-4-6,3.3-4.7c7.3,1.3,88.7,7.3,88.7,7.3
		s6.7,0,7.3,5.3c0.7,5.3,87.3,358.7,87.3,358.7s0,5.6-4.7,4.8C907.6,512.5,814.9,513.2,814.9,513.2z"/>
	<g>
		<g id="XMLID_1_">
			<g>
				<path class="st3" d="M804.9,510.5c0,0-0.1,0.2-0.6,0.5c0,0,0,0,0,0c-1-0.6-2-1.2-3-1.8c-14.1-8.4-28.7-15.5-43.4-22.2
					c1.3-0.1,2-0.1,2-0.1c-23-195-65-304-67-313c-0.7-3-2.2-5-4-6.3c9.7-11.2,20.3-21.4,31.6-31.1c1,0.7,1.9,1.6,2.4,2.7
					C725.6,144.5,804.9,501.8,804.9,510.5z"/>
				<path class="st10" d="M804.3,511C804.3,511,804.3,511,804.3,511c-0.9,0.7-3.3,1.7-8.7,2.2c-8,0.7-386.7-0.7-390-2.7
					c-2.6-1.5-1.6,0.9-2.2-0.1c5.6-9.3,11.2-18.6,16.6-28.1c3.1,2.8,6,4.5,6,4.5c126.2,13.2,310.9,1.5,332,0.1
					c14.8,6.8,29.3,13.9,43.4,22.2C802.3,509.8,803.3,510.4,804.3,511z"/>
				<path d="M356.6,138.7c-0.4-0.6-0.8-1.3-1.2-1.9C355.8,137.4,356.2,138.1,356.6,138.7z M419.9,482.4c-2.7-2.4-5.5-5.7-7-9.5
					c-6-15.5-31-96-63-332c0,0-1.3-6.3,2.7-8.4c1-0.5,2.4-0.8,4.3-0.6c9,1,131-2,324,33c0,0,4.5,0,8,2.7c1.8,1.3,3.3,3.3,4,6.3
					c2,9,44,118,67,313c0,0-0.7,0-2,0.1c-21.1,1.4-205.8,13.1-332-0.1C425.9,486.8,423,485.2,419.9,482.4z"/>
				<path class="st11" d="M710.2,133.2c0,0,6.3,0.4,10.3,3.3c-11.3,9.7-21.9,19.9-31.6,31.1c-3.5-2.7-8-2.7-8-2.7
					c-193-35-315-32-324-33c-1.9-0.2-3.3,0.1-4.3,0.6c-8.4-12.7-17.8-24.4-26.8-36.5c-0.4-0.5-0.7-0.9-1-1.4c1.2-1.3,3.5-2.3,8.1-2
					C342.9,93.2,710.2,133.2,710.2,133.2z"/>
				<path class="st12" d="M412.9,472.8c1.5,3.8,4.3,7.1,7,9.5c-5.4,9.5-11,18.8-16.6,28.1c-0.2-0.3-0.5-0.8-1.1-1.9
					c-2.7-4.7-78.7-410.7-78.7-410.7s-0.2-1.8,1.2-3.3c0.3,0.5,0.7,0.9,1,1.4c9,12.1,18.4,23.8,26.8,36.5c-3.9,2.1-2.7,8.4-2.7,8.4
					C381.9,376.8,406.9,457.4,412.9,472.8z"/>
				<path d="M356.6,138.7c-0.4-0.6-0.8-1.3-1.2-1.9C355.8,137.4,356.2,138.1,356.6,138.7z"/>
			</g>
			<g>
			</g>
		</g>
	</g>
	<polygon id="metal" class="st13" points="779.6,312.4 860.2,316.5 901.6,493.1 819.6,493.1 	"/>
	<path id="circle" class="st14" d="M858.2,384.5c0,0-6,22.7-31.3,4.7s-19.3-58,0-60s28,17.3,28,17.3L858.2,384.5z"/>
	<path id="circle2" class="st14" d="M871.6,424.5c0,0-9.3-19.3-26-19.3c-16.7,0-22.7,20-17.3,36.7c5.3,16.7,18.7,34.7,36.7,30
		c18-4.7,11.3-27.3,11.3-27.3L871.6,424.5z"/>
	<path id="ring2" d="M854.2,419.8v-4.7c0,0-15.3-4-16.7,16.7c-1.3,20.7,19.3,28,19.3,28s10,2.7,14-2.7v-6.3c0,0-8.3,2.3-13.7,0
		c-5.3-2.3-10.7-5.7-11.7-18.7S854.2,419.8,854.2,419.8z"/>
	<path id="switch2" class="st14" d="M886.2,446.5c0,0,6,2.7,8,0s3.7-4.3,3.7-4.3s2.5-4.3-2.5-7.5c-5-3.2-37.2-16.3-37.2-16.3
		s-3.3-1.5-6.8,0s-2.5,14.3-2.5,14.3s0,2.2,3,3.7S886.2,446.5,886.2,446.5z"/>
	<path id="shswitch2" d="M894.2,446.5c0,0-2.1,2.9-8,0c0,0-32.8-9.2-34.3-10.2c-1.5-1-2.9-2.1-3-3.7l5.3-3l43.8,12.5L894.2,446.5z"
		/>
	<path id="ring2_1_" d="M837.5,344.7v-4.7c0,0-15.3-4-16.7,16.7c-1.3,20.7,19.3,28,19.3,28s10,2.7,14-2.7v-6.3c0,0-8.3,2.3-13.7,0
		c-5.3-2.3-10.7-5.7-11.7-18.7S837.5,344.7,837.5,344.7z"/>
	<path id="switch2_1_" class="st14" d="M838.9,344.1c0,0-2.3-6.4,0.5-8.3c2.8-1.9,4.6-3.5,4.6-3.5s4.5-2.3,7.3,3.1
		c2.8,5.4,13.8,39.7,13.8,39.7s1.3,3.6-0.5,7.1c-1.7,3.5-14.5,1.7-14.5,1.7s-2.2-0.1-3.5-3.4C845.5,377.2,838.9,344.1,838.9,344.1z"
		/>
	<path id="shswitch2_1_" d="M839,335.5c0,0-3,2-0.5,8.3c0,0,7,34.7,7.9,36.4s1.9,3.2,3.5,3.4l3.3-5.3l-9.5-46.3L839,335.5z"/>
	<path id="white1" class="st3" d="M848.4,342.8l2.8-0.6c0,0-1-7.1-2.8-7.6C846.6,334,848.4,342.8,848.4,342.8z"/>
	<path id="white1_1_" class="st3" d="M888.2,437.7l0.9-2.7c0,0,7,1.6,7.4,3.5C896.7,440.3,888.2,437.7,888.2,437.7z"/>
</g>
</svg>
