<?xml version="1.0" encoding="utf-8"?>
<!-- Generator: Adobe Illustrator 22.0.1, SVG Export Plug-In . SVG Version: 6.00 Build 0)  -->
<svg version="1.1" xmlns="http://www.w3.org/2000/svg" xmlns:xlink="http://www.w3.org/1999/xlink" x="0px" y="0px"
	 viewBox="0 0 658 734" style="enable-background:new 0 0 658 734;" xml:space="preserve">
<style type="text/css">
	.st0{fill:#3F3F3F;}
	.st1{display:none;fill:#1E1E1E;}
	.st2{fill:#2D2D2D;}
	.st3{display:none;}
	.st4{display:inline;}
	.st5{display:inline;fill:#3F3F3F;}
	.st6{display:inline;fill:#070707;}
	.st7{fill:#D8D8D8;}
	.st8{fill:#232323;}
	.st9{fill:#FFFFFF;}
	.st10{fill:#424242;}
	.st11{fill:#6D6B6B;}
	.st12{fill:#3D3D3D;}
	.st13{display:inline;fill:#FFFFFF;}
	.st14{font-family:'NeuePlak-Bold';}
	.st15{font-size:31.9325px;}
</style>
<g id="body_1_">
	<g id="body">
		<path d="M557.1,318.5c-0.5-2,4-5,4-5s1.5-44.5,2-50.5s-7.5-10.5-7.5-10.5L517.1,238h-19c0,0-3-7.5-2.5-11.5s-4.5-6-4.5-6
			c-37.3-21.8-49.6,0.8-53.4,1s-4.8,6-4.8,6s-18-0.5-20.3-2s-19.5-5-19.5-5c-8-1.8-20.8,1.8-25.3,1.3s-5.3,1.8-5.3,1.8l-1.3,6
			c0,0-18.8,26.8-21,30.3s-18.8,41.1-18.8,41.1C321.5,307.8,307,322,307,322l-8.1-13.4l-4.5-3.1l-1.4-1.4l-2.3-5.4l-0.3-4l0.4-3.3
			c0,0,4.4-13.1,5.3-14s1.8-3.1,1.9-4.4s-1.3-6.6-1.3-6.9s-0.3-2.8,1-6.3s0-4,0-4l1.3-5.8c0,0,2.3-4.3-1.8-4.5S289,255,290,258
			c1,3-1.2,6.5-1.5,5.5s-4.3-10.5-4.3-10.5s-2.3-8.8-3-11.5s-3.3-6.5-3.8-8.5s1.5-1-1.8-6.8s-6-3-6.5-1.8s4.5,15.5,4.5,17.3
			s2.5,9,2.5,10.5s-1.8,1.5-2.3-1.3s-4.3-15-4.3-15l-2.5-5c0,0-0.3-3.8-3-8.3s-5.8-0.8-5.8-0.8v4.3c0,0-2.5-2-4.3,0S254,233,254,233
			s3.3,7.3,3,11.8s4,8.3,3.5,12.8s-2,4.3-2,3.3s-6-11.5-6-11.5s-2.3-6-2.8-8.3s-3-1.8-3-1.8c-3.3,1.8-1.3,8.3-1.3,8.3
			s8.2,14.2,7.5,17.5c-0.7,3.3,3.3,20.7,3.3,20.7l10.7,16.7c0,0,4.7,7.3,2,8s-1.3,8.7-1.3,8.7l-8,18l21.3,26l-15.2,5.3
			c0,0-94.7,26.7-113.3,34c-18.7,7.3-11.7,13.3-14,13.3c-2.3,0-13.3,27.3-14.7,29c-1.3,1.7-12.7,43.7-12.7,43.7s-47.3,90.3-46,90.3
			c1.3,0,13.3,14,13.3,14l3,1.7v1.3c16.7,3.6,34.6-3.6,51.1-0.3c4.6-8.8,12.8-24.4,14.9-26.3c3-2.7,17.3-46.7,17.3-46.7
			c2.3-1.7,15-21.3,15.7-25c0.7-3.7-1-5-1-5s-2.3-8.6,0-6.6c2.3,2,7.3-0.7,11.3-2.3s4.3-11,4.3-10s4.7,2,12.7,5s20.7-2.7,20.7-2.7
			l130-13.7l8.3,43.3c0,0-8,1-9.7,5.3c-1.7,4.3,6,11.7,6,11.7l4.3,14.3c0,0,9.7,4.3,10,6.3c0.3,2,8.7,2.3,8.7,2.3s4.7,12,8.3,21.3
			c3.7,9.3,16.7,27.7,16.7,27.7s1,10.3,4.3,19.3c3.3,9,8,15.3,8,15.3l5.3,42.3c0,0-2.7,12.3,7,16s22.7-5.7,22.7-5.7l0.5,1.4
			c9.9-10.2,17.1-22.5,26.8-32.9l-1-4.9c0,0-1-14.3-0.7-18.7c0.3-4.3-4.7-11-4.7-11l-1.3-15c0,0,2-4,4-9s-6.7-14-6.7-14
			c-2.3-21-18.7-51.7-18.7-51.7s-0.7-8.3,0.3-14c1-5.7-9-16.7-9-16.7V488l7-15l7.5-3l5.5-7.5l19,29c0,0,13,8.5,27.5,0
			s22.5-80.5,24-79.5s15.5-14.5,17-19s3-63.5,3-63.5s2.5-3,4.5-5.5C565.2,321.5,557.6,320.5,557.1,318.5z"/>
	</g>
</g>
<g id="left_shoe_2">
	<path d="M517.6,666.8l4.9-2.6c0,0-1.8-9.9-1.7-9.5c-1-1.3-13.6-10.9-19-8.9c-9.7,2-18.4,5.3-18.4,5.3s-13.4,6.3-15.5,7.9
		c-2.1,1.6-9.6,8.7-9.6,8.7s-5.3,4.8-7.5,3.2c-2.2-1.7-11,0.5-11.3,2.7c-0.3,2.2-3,22.8-2.2,25.5c0.8,2.7,3,9.8,5.1,8.7
		c2.1-1.1,46.8-23.6,46.8-23.6L517.6,666.8z"/>
	<path class="st0" d="M517.9,652.9c2.3,0.9,3.5,3.7,4.1,7.2c1.5,8.2-0.4,20-0.4,20s-10,10.8-15.2,11.5s-17.5,4.3-17.5,4.3l-10.3,0.8
		c0,0-3.3,1.8-2.8,3.5s-3.8,8.3-3.8,8.3l-4,1.3c0,0-15,3.5-20.3,1.5s-7.3-5.5-7.3-5.5s-0.8-10,4.5-11.8s9.2-4.8,9.2-4.8
		s5.5,0.8,7.3-3.3s13.3-20.8,13.3-20.8l11.7-6.4c0,0,15-7,24-5.8c9,1.1,9,1.1,9,1.1"/>
	<path d="M475.9,700.2c0,0,2.4-3.5,3.5-3.6c1.1-0.1-17.7-10.7-17.7-10.7s-3.6,3.9-6.3,3.3S475.9,700.2,475.9,700.2z"/>
	<path class="st1" d="M474.1,705.1l-24.8-12.9c0,0,4.7-2.9,6.1-3c1.4-0.1,20.5,10.9,20.5,10.9S475.3,705.8,474.1,705.1z"/>
</g>
<g id="right_shoe">
	<path d="M123.3,594.4v9.1c0,0-1,24.5-6,24.5s-14,1-22,0s-14.5-5.8-15.5-9.7c-1-3.8-2.5-10.2-2.5-10.2l-30-11.5
		c0,0-16.8-9.8-11.8-31.2s12-22.2,12-22.2s20.3,0,31.5,15.7S123.3,594.4,123.3,594.4"/>
	<path id="sole_1_" class="st2" d="M115.3,607.4c0,0,7,20.6,2,20.6s-14,1-22,0s-14.5-5.8-15.5-9.7c-1-3.8-2.5-10.2-2.5-10.2
		s-16.3-4.7-30-11.5c-13.7-6.8-13.3-24-13.3-24s2.6-16.7,4.5-17.2c1.9-0.5,32.8,4.8,40.5,13.5c7.6,8.8,21.3,29.8,22.4,30.4
		S115.3,607.4,115.3,607.4z"/>
	<path d="M101.8,601.8l-24.5,6.4c0,0,0.8,3.4,1.2,5s20-7.3,27.8-5.7S99.3,604.5,101.8,601.8z"/>
</g>
<g id="left_shoe" class="st3">
	<path class="st4" d="M779,601.3c0,0-0.8-6.9-2.5-7.3c-1.7-0.4-5.3-2.7-4.5-5.5c0.8-2.8,3.2-8.1-1.4-15.5s-6.5-8.7-6.5-8.7l-18.8-15
		l-3.3-1.8c0,0-4.9-2-13.2,3.2c-8.3,5.2-11.7,6.7-12.4,10.7c-0.7,4-2.1,25.3-0.5,28.1s27,23.7,27,23.7S775.5,616.1,779,601.3z"/>
	<path class="st5" d="M746,554.8l-7.9-3.7c0,0-11.8,2.9-15.7,8.6c-4,5.7-5.1,32.4-5.1,32.4s0.8,13.7,7.3,16.3
		c6.5,2.6,12.8,5.4,12.8,5.4s4.5,1.1,6.4,4.5c1.9,3.4,5.4,13.4,7.6,14s10.9,10,21.7,3.2c10.8-6.8,10-5.4,10-5.4s5.6-6.2,3.3-11.1
		c-2.3-4.9-7.3-15.5-10.9-15.7c-3.7-0.2-7.4-7-5.7-9.7c1.7-2.7,2.9-14.8-1.3-19.6C764.4,569.1,746,554.8,746,554.8z"/>
	<path class="st6" d="M759.1,623.8c0,0,14-17.8,16.5-17.6s3.1,0.7,3.1,0.7s-4.6-5.5-6.4-4.9c-1.8,0.6-27.7,17.1-27.7,17.1
		s0.6,3.9,1.8,3.2c1.2-0.7,17.2-10.3,15.9-7.6C761,617.5,758.1,623.3,759.1,623.8z"/>
</g>
<g id="shirt">
	<g id="Layer_5">
		<path class="st7" d="M491.5,222.1c0,0,4.1-0.1,1.3,6S471.5,255,471.5,255l-11.1,17.1c0,0-9.5,19.6-10.1,22.1s-13.8,31.9-13.9,37.6
			c0,0-1.1,8.4,0,11.1s8.3,12.3,8.3,12.3s-5.5,1.3-6.7,2.5c-1.2,1.2-5.2,3-5,3.7s-29.8-12-34.2-11.5c-4.3,0.5-19.7-4.3-38-0.7
			c-18.3,3.7,14.8-13,14.8-13s10.5-12.3,13.7-12.2c3.2,0.2,7.7-14.5,7.7-14.5l22.8-36.3l2-8.3l11.5-21.8l1.3-15.7
			c0,0,0.3-3.8,2.8-4.3S452.3,213.6,491.5,222.1z"/>
	</g>
</g>
<g id="tie">
	<path class="st8" d="M446.5,244.3h13.3l2.3,4.3c0,0-3.3,11.8-5.5,12.3s-1.4,0-1.4,0l-0.8,7.3c0,0,0.8,10.8,0,12.8
		s-4.8,20.4-14.9,38.9s-23.7,35.4-23.7,35.4L397.5,390l-32.5,6.3c0,0-1.5,1-2.8,0c-1.3-1-12.8-13.4-11.8-16.3l18.4-28.4l25.2-23.8
		c0,0,16.7-17,16.2-17.7c-0.5-0.7,29.7-41.3,29.7-41.3l3.2-9.7c0,0-2.6-10.8-1.9-11.5S443.5,243.6,446.5,244.3z"/>
</g>
<g id="tri_right">
	<path class="st9" d="M465.6,265.3l-9.4-25.3l30.3-11c0,0,3.6-1.1,4-2.3s2.8-3,2.4-4s2.6,2.3-3.1,9.9S465.6,265.3,465.6,265.3z"/>
</g>
<g id="tri_left">
	<path class="st9" d="M438,222.8c0,0-2.5,1.5-3.3,5.5s-1.8,15.5-1.8,15.5l-4,10.8l-0.7,9l11.2-10.5c0,0,9.5-11.2,11.2-11
		c1.7,0.2,7.2,2.8,7.2,2.8l-14-12.3C443.8,232.5,435.8,227.5,438,222.8z"/>
</g>
<g id="lefthand">
	<path d="M576.1,465.6l11.6,20.4c0,0,3.7,7.7,3,12.9c-0.7,5.2,1,10.2,1,10.2s-0.8,2.5-1.7,1.9c-0.9-0.6-1.4,1.7-4-5.8
		c-2.6-7.6,1.3,9.8,1.3,9.8s0.9,5.7-1.1,6.1c-2,0.4-3.5-0.5-3.5-0.5s1.4,2.4-0.2,4.8c-1.5,2.4-5.4-0.8-6.5-3.3s-5.1-18.5-5.1-18.5
		l-5.2-9.4c0,0-2.3-0.8-2,0.7c0.3,1.5,2.9,5.2,2.6,7.1s1.3,6.4,0.8,7.8c-0.4,1.4,3.8,10.4,3.8,10.4s0.9,5.4-0.6,5.7
		c-1.5,0.3-3.9,2.3-6.5-4.8c-2.6-7.1-4.6-9.8-4.6-9.8l-1.6-2.1c0,0,0.2-3.3,0.5-3.5c0.3-0.2-5.3-12.3-5.3-12.3s-2.5-2.4-2.5,2.4
		c0.1,4.8,0.1,11.5-2,13.9c-2.1,2.3-3.3,3.9-6.3,3.2c-3-0.7,0.7-5,0.7-5l-0.4-24.8l1.1-22c0,0-10-2.4-7.1-9.6
		c2.9-7.3-3.7-18.3-0.8-28.9c0.7-2.7,22.8-1.6,22.8-1.6L576.1,465.6z"/>
	<path d="M546.2,473.5c0,0-13.2,3.1-11.4-6.9c1.7-10-8.7-73.6-8.7-73.6l23-16l6.4,7l21.6,69.7L546.2,473.5z"/>
</g>
<g id="TV">
	<path id="backing" d="M587.3,242.2l10.9-21.5L612,97c0,0,1.8-5.8-4.5-6.7c0,0-193.8-24.3-201.2-22.2s-26.8,4.7-26.8,4.7
		L587.3,242.2z"/>
	<path id="rim1" class="st10" d="M597.2,96.9c0,0,7.5,0.8,6.5,8s-15,132.3-15,132.3s1.3,7.5-7.8,7s-208-29.3-209.5-29
		s-6.3-2.3-6.3-6.5s11.5-131,11.5-131s-0.8-6.3,8-5.3"/>
	<path id="rim2" d="M379.8,80.5c0,0-1.3-5.7,5.3-4.3c6.7,1.3,210,23.7,210,23.7s6.7-0.3,4.3,6c-2.3,6.3-14.7,131-14.7,131
		s1,4.3-4.7,3.7c-5.7-0.7-208.3-29.3-208.3-29.3s-3.7-0.3-3-4C369.5,203.5,379.8,80.5,379.8,80.5z"/>
	<path id="rim3" class="st9" d="M373.9,208.2c0,0,9.5-127,11-127.2s156.8,18,156.8,18s4,0.5,3.3,2s-14,127.7-14,127.7
		s1.5,1.8-4.3,1.3S373.9,208.2,373.9,208.2z"/>
	<path id="screen" d="M385.8,194c0,0-0.2,4.4,1.7,4.8c0,0,63.2,15.3,128.2,19.1c0,0,7.1,0.2,6.2-3.4c0,0,11-37.8,11.3-103.5
		c0,0,1.3-2.8-3.8-4.2C498,98.5,400.2,92.2,397.4,91.9s-2.8,2.3-2.8,2.3S386.5,133.5,385.8,194z"/>
	<polygon id="brownplate" points="533.7,231.2 547.2,99.7 595.9,105.2 581.9,237.2 	"/>
	<polygon id="dialrim" class="st11" points="539,224.9 545.2,163.7 583.7,168.2 577.5,229.7 	"/>
	<path id="wheeltopB" d="M561.5,198.7c0,0-10.7-1.2-12.8,9.5c-2.2,10.7,10.2,14.2,10.2,14.2s11,0.8,13.2-9.5
		C574.2,202.5,563,197.7,561.5,198.7z"/>
	<path id="wheeltopB-2" class="st12" d="M567.7,213.9c0,0,1.5-8.1-4.4-9.9s-9.8,2-9.8,2l2.4,1.3c0,0,3.8-2.1,6.3-0.1
		s2.6,2.8,2.4,3.9S567.7,213.9,567.7,213.9z"/>
	<path id="wheeltopB-4" class="st12" d="M567.7,217.7c0,0-17.8-5.8-17.8-6.4s0.1-4.4,2.5-3.8s16.4,7,16.4,7S570.1,217.3,567.7,217.7
		z"/>
	<path id="wheeltopB-3" class="st9" d="M563.3,215.3c0,0-1.4-2.6,1.4-1.4s3.2,2.1,3.2,2.1l-0.2,0.6L563.3,215.3z"/>
	<path id="wheeltopA" d="M563.5,171.5c0,0-10-0.2-12,11c-2,11.2,11,13,11,13s11-0.3,12.7-9.5C576.8,176.9,569.5,171.5,563.5,171.5z"
		/>
	<path id="wheeltopA-2" class="st12" d="M564.7,179v-2.2c0,0,6.5,2.3,6,7.7c-0.5,5.3-6,7-6,7V189C564.7,189,571.8,184.4,564.7,179z"
		/>
	<path id="wheeltopA-4" class="st12" d="M563.3,192.4c0,0-3.3,0.7-4.1-0.9c-0.9-1.6,2.1-16,2.1-16s1.9-1.3,2.7,0
		C564.7,176.9,563.3,192.4,563.3,192.4z"/>
	<path id="wheeltopA-3" class="st9" d="M561.2,180.4c0,0,1.2,2.3,1.8,0c0.7-2.3,0-4.3,0-4.3h-0.8L561.2,180.4z"/>
	<path d="M468,24.6c-2.4-1.1-2.6,0.7-2.6,0.7l41.6,57.6c1.1-0.1,2.2-0.2,3.3-0.3C498.4,65.9,469.9,25.5,468,24.6z"/>
	<path d="M541.3,39.8c-1.5,0.7-20.7,25.9-33.6,43c1.3-0.2,2.5-0.4,3.8-0.4l32.4-42C543.8,40.5,543.6,38.8,541.3,39.8z"/>
	<text transform="matrix(0.9926 0.1212 -0.1212 0.9926 407.9926 141.5399)" class="st3"><tspan x="0" y="0" class="st13 st14 st15">MEDIA</tspan><tspan x="0" y="38.3" class="st13 st14 st15">SLAVE™</tspan></text>
</g>
</svg>
